<?xml version="1.0" encoding="utf-8"?>
<!-- Generator: Adobe Illustrator 19.0.0, SVG Export Plug-In . SVG Version: 6.00 Build 0)  -->
<svg version="1.1" id="Layer_1" xmlns="http://www.w3.org/2000/svg" xmlns:xlink="http://www.w3.org/1999/xlink" x="0px" y="0px"
	 viewBox="0 0 192.4 419.7" style="enable-background:new 0 0 192.4 419.7;" xml:space="preserve">
<style type="text/css">
	.st0{fill:#FCBA59;}
	.st1{fill:#3E5133;}
	.st2{fill:none;stroke:#3E5133;stroke-width:11;stroke-miterlimit:10;}
	.st3{fill:none;stroke:#AFA935;stroke-width:11;stroke-miterlimit:10;}
</style>
<g id="XMLID_12_">
	<rect id="XMLID_4_" x="4" y="29.1" class="st0" width="19" height="329"/>
	<polygon id="XMLID_3_" class="st0" points="4.7,365.1 13.6,393.6 22.5,365.1 	"/>
</g>
<g id="XMLID_13_">
	<rect id="XMLID_5_" x="0" y="408.7" class="st1" width="127.3" height="11"/>
	<rect id="XMLID_6_" x="34.5" y="0.1" class="st1" width="11.1" height="409.1"/>
	<rect id="XMLID_7_" x="58.3" y="0.1" class="st1" width="23.3" height="408.7"/>
	<rect id="XMLID_8_" x="0" y="0.1" class="st1" width="127.4" height="11"/>
	<path id="XMLID_10_" class="st2" d="M119.3,5.6c1.1,0,2.8,0,4.8,0c1.7,0,2.9,0,3.1,0c7.5,0,18.3,3.3,18.3,3.3
		c4.3,1.3,10,2.9,14.6,5.6c15.8,9.5,21.6,32.2,22.9,37.1c2.4,8.8,2.8,16.5,3.7,31.9c0.2,2.9,0.3,5.5,0.3,34.5c0,17.6,0,17.4,0,30.1
		c0,18.2,0.1,21.3,0.1,24.2c0,0,0,1.1-0.1,2.3c-0.5,14.9-0.8,26.2-5.2,38.1c-1.6,4.3-4.1,10.9-9.8,17.7c-4.6,5.5-9.9,9.3-12.8,11.4
		c-9.1,6.6-17.9,10.1-30.1,13.1c-18.6,4.5-34.9,4.9-48.7,5.2c-1.4,0-2.6,0-3.4,0.1"/>
	<rect id="XMLID_11_" x="141.3" y="10.8" class="st1" width="9.2" height="236.3"/>
</g>
<path id="XMLID_14_" class="st3" d="M104,258.8"/>
</svg>
